<?xml version="1.0" encoding="UTF-8" standalone="no"?>
<svg
   width="1101.6453pt"
   height="559.93396pt"
   viewBox="0 0 1101.6453 559.93395"
   version="1.1"
   id="svg505"
   sodipodi:docname="fdi50_signal_and_zones.svg"
   inkscape:version="1.1 (c68e22c387, 2021-05-23)"
   xmlns:inkscape="http://www.inkscape.org/namespaces/inkscape"
   xmlns:sodipodi="http://sodipodi.sourceforge.net/DTD/sodipodi-0.dtd"
   xmlns:xlink="http://www.w3.org/1999/xlink"
   xmlns="http://www.w3.org/2000/svg"
   xmlns:svg="http://www.w3.org/2000/svg"
   xmlns:rdf="http://www.w3.org/1999/02/22-rdf-syntax-ns#"
   xmlns:cc="http://creativecommons.org/ns#"
   xmlns:dc="http://purl.org/dc/elements/1.1/">
  <sodipodi:namedview
     id="namedview507"
     pagecolor="#ffffff"
     bordercolor="#666666"
     borderopacity="1.0"
     inkscape:pageshadow="2"
     inkscape:pageopacity="0.0"
     inkscape:pagecheckerboard="0"
     inkscape:document-units="pt"
     showgrid="false"
     inkscape:zoom="0.40830181"
     inkscape:cx="279.20523"
     inkscape:cy="273.08231"
     inkscape:window-width="1920"
     inkscape:window-height="1001"
     inkscape:window-x="-9"
     inkscape:window-y="-9"
     inkscape:window-maximized="1"
     inkscape:current-layer="figure_1"
     fit-margin-top="0"
     fit-margin-left="0"
     fit-margin-right="0"
     fit-margin-bottom="0" />
  <metadata
     id="metadata2">
    <rdf:RDF>
      <cc:Work>
        <dc:type
           rdf:resource="http://purl.org/dc/dcmitype/StillImage" />
        <dc:date>2024-07-16T15:56:42.054641</dc:date>
        <dc:format>image/svg+xml</dc:format>
        <dc:creator>
          <cc:Agent>
            <dc:title>Matplotlib v3.8.2, https://matplotlib.org/</dc:title>
          </cc:Agent>
        </dc:creator>
      </cc:Work>
    </rdf:RDF>
  </metadata>
  <defs
     id="defs6">
    <style
       type="text/css"
       id="style4">*{stroke-linejoin: round; stroke-linecap: butt}</style>
  </defs>
  <g
     id="figure_1"
     transform="translate(-135.13875,-82.3712)">
    <g
       id="axes_1">
      <g
         id="patch_2">
        <path
           d="M 171.72,613.8864 H 1236.384 V 82.7712 H 171.72 Z"
           style="fill:#ffffff"
           id="path11" />
      </g>
      <g
         id="PolyCollection_1">
        <defs
           id="defs15">
          <path
             id="m24d68d178a"
             d="m 171.72,-191.52104 v 45.50663 l 22.1805,16.10829 22.1805,15.72289 22.1805,3.29287 22.1805,13.788085 22.1805,-0.08614 22.1805,6.715904 22.1805,0.528121 22.1805,1.104189 22.1805,0.969913 22.1805,0.859248 22.1805,-5.189962 22.1805,2.760351 22.1805,-5.145589 22.1805,0.0062 22.1805,-102.44188 22.1805,67.9447 22.1805,15.02312 22.1805,-3.43424 22.1805,-0.13524 22.1805,-0.5092 22.1805,5.17736 22.1805,-2.83987 22.1805,0.0385 22.1805,-4.01774 22.1805,-3.89322 22.1805,4.99707 22.1805,5.0625 22.1805,0.22809 22.1805,-2.06175 22.1805,-11.21329 22.1805,-35.64106 22.1805,-9.69589 22.1805,15.70995 22.1805,-22.60185 22.1805,12.78153 22.1805,-24.28003 22.1805,-18.26259 22.1805,27.29116 22.1805,13.95365 22.1805,-10.13382 22.1805,6.62373 22.1805,-14.1926 22.1805,5.44808 22.1805,-1.37897 22.1805,-45.01211 22.1805,-14.08826 22.1805,71.98576 v -46.0952 0 l -22.1805,-108.1759 -22.1805,30.54463 -22.1805,51.34309 -22.1805,10.61825 -22.1805,-17.85136 -22.1805,37.21085 -22.1805,-15.52073 -22.1805,9.01824 -22.1805,-14.3461 -22.1805,-51.14934 -22.1805,9.10375 -22.1805,40.55436 -22.1805,-15.35758 -22.1805,43.54536 -22.1805,-36.01786 -22.1805,18.42921 -22.1805,51.34383 -22.1805,23.1106 -22.1805,-0.25672 -22.1805,2.92543 -22.1805,-7.58867 -22.1805,-30.60218 -22.1805,12.01962 -22.1805,18.98385 -22.1805,2.97936 -22.1805,9.84605 -22.1805,-6.68992 -22.1805,-9.60715 -22.1805,8.27598 -22.1805,11.91185 -22.1805,-43.84636 -22.1805,-103.28057 -22.1805,173.17383 -22.1805,-8.0236 -22.1805,17.51613 -22.1805,-20.29918 -22.1805,28.774857 -22.1805,-1.147306 -22.1805,-29.073921 -22.1805,18.28862 -22.1805,4.252488 -22.1805,-23.767598 -22.1805,8.95388 -22.1805,-25.53829 -22.1805,-4.13753 -22.1805,-20.95935 z"
             style="stroke:#1f77b4;stroke-opacity:0.2" />
        </defs>
        <g
           clip-path="url(#pedd37d56c7)"
           id="g19">
          <use
             xlink:href="#m24d68d178a"
             x="0"
             y="689.76001"
             style="fill:#1f77b4;fill-opacity:0.2;stroke:#1f77b4;stroke-opacity:0.2"
             id="use17"
             width="100%"
             height="100%" />
        </g>
      </g>
      <g
         id="PolyCollection_2">
        <path
           d="M 193.9005,613.8864 H 171.72 V 82.7712 h 22.1805 v 0 z"
           clip-path="url(#pedd37d56c7)"
           style="fill:#808080;fill-opacity:0.25"
           id="path22" />
      </g>
      <g
         id="PolyCollection_3">
        <path
           d="M 393.525,613.8864 H 171.72 V 82.7712 h 221.805 v 0 z"
           clip-path="url(#pedd37d56c7)"
           style="fill:#808080;fill-opacity:0.25"
           id="path25" />
      </g>
      <g
         id="PolyCollection_4">
        <path
           d="M 482.247,613.8864 H 460.0665 V 82.7712 h 22.1805 v 0 z"
           clip-path="url(#pedd37d56c7)"
           style="fill:#808080;fill-opacity:0.25"
           id="path28" />
      </g>
      <g
         id="PolyCollection_5">
        <path
           d="M 482.247,613.8864 H 460.0665 V 82.7712 h 22.1805 v 0 z"
           clip-path="url(#pedd37d56c7)"
           style="fill:#808080;fill-opacity:0.25"
           id="path31" />
      </g>
      <g
         id="PolyCollection_6">
        <path
           d="M 482.247,613.8864 H 260.442 V 82.7712 h 221.805 v 0 z"
           clip-path="url(#pedd37d56c7)"
           style="fill:#808080;fill-opacity:0.25"
           id="path34" />
      </g>
      <g
         id="PolyCollection_7">
        <path
           d="M 193.9005,613.8864 H 171.72 V 82.7712 h 22.1805 v 0 z"
           clip-path="url(#pedd37d56c7)"
           style="fill:#808080;fill-opacity:0.25"
           id="path37" />
      </g>
      <g
         id="PolyCollection_8">
        <path
           d="m 482.247,613.8864 v 0 -531.1152 0 0 z"
           clip-path="url(#pedd37d56c7)"
           style="fill:#808080;fill-opacity:0.25"
           id="path40" />
      </g>
      <g
         id="PolyCollection_9">
        <path
           d="M 504.4275,613.8864 H 482.247 V 82.7712 h 22.1805 v 0 z"
           clip-path="url(#pedd37d56c7)"
           style="fill:#808080;fill-opacity:0.25"
           id="path43" />
      </g>
      <g
         id="PolyCollection_10">
        <path
           d="m 504.4275,613.8864 v 0 -531.1152 0 0 z"
           clip-path="url(#pedd37d56c7)"
           style="fill:#808080;fill-opacity:0.25"
           id="path46" />
      </g>
      <g
         id="PolyCollection_11">
        <path
           d="m 504.4275,613.8864 v 0 -531.1152 0 0 z"
           clip-path="url(#pedd37d56c7)"
           style="fill:#808080;fill-opacity:0.25"
           id="path49" />
      </g>
      <g
         id="PolyCollection_12">
        <path
           d="M 504.4275,613.8864 H 482.247 V 82.7712 h 22.1805 v 0 z"
           clip-path="url(#pedd37d56c7)"
           style="fill:#808080;fill-opacity:0.25"
           id="path52" />
      </g>
      <g
         id="PolyCollection_13">
        <path
           d="m 482.247,613.8864 v 0 -531.1152 0 0 z"
           clip-path="url(#pedd37d56c7)"
           style="fill:#808080;fill-opacity:0.25"
           id="path55" />
      </g>
      <g
         id="PolyCollection_14">
        <path
           d="M 526.608,613.8864 H 504.4275 V 82.7712 h 22.1805 v 0 z"
           clip-path="url(#pedd37d56c7)"
           style="fill:#808080;fill-opacity:0.25"
           id="path58" />
      </g>
      <g
         id="PolyCollection_15">
        <path
           d="M 726.2325,613.8864 H 504.4275 V 82.7712 h 221.805 v 0 z"
           clip-path="url(#pedd37d56c7)"
           style="fill:#808080;fill-opacity:0.25"
           id="path61" />
      </g>
      <g
         id="PolyCollection_16">
        <path
           d="M 948.0375,613.8864 H 925.857 V 82.7712 h 22.1805 v 0 z"
           clip-path="url(#pedd37d56c7)"
           style="fill:#808080;fill-opacity:0.25"
           id="path64" />
      </g>
      <g
         id="PolyCollection_17">
        <path
           d="M 948.0375,613.8864 H 925.857 V 82.7712 h 22.1805 v 0 z"
           clip-path="url(#pedd37d56c7)"
           style="fill:#808080;fill-opacity:0.25"
           id="path67" />
      </g>
      <g
         id="PolyCollection_18">
        <path
           d="M 948.0375,613.8864 H 726.2325 V 82.7712 h 221.805 v 0 z"
           clip-path="url(#pedd37d56c7)"
           style="fill:#808080;fill-opacity:0.25"
           id="path70" />
      </g>
      <g
         id="PolyCollection_19">
        <path
           d="M 526.608,613.8864 H 504.4275 V 82.7712 h 22.1805 v 0 z"
           clip-path="url(#pedd37d56c7)"
           style="fill:#808080;fill-opacity:0.25"
           id="path73" />
      </g>
      <g
         id="PolyCollection_20">
        <path
           d="m 948.0375,613.8864 v 0 -531.1152 0 0 z"
           clip-path="url(#pedd37d56c7)"
           style="fill:#808080;fill-opacity:0.25"
           id="path76" />
      </g>
      <g
         id="PolyCollection_21">
        <path
           d="M 970.218,613.8864 H 948.0375 V 82.7712 h 22.1805 v 0 z"
           clip-path="url(#pedd37d56c7)"
           style="fill:#808080;fill-opacity:0.25"
           id="path79" />
      </g>
      <g
         id="PolyCollection_22">
        <path
           d="m 992.3985,613.8864 v 0 -531.1152 0 0 z"
           clip-path="url(#pedd37d56c7)"
           style="fill:#808080;fill-opacity:0.25"
           id="path82" />
      </g>
      <g
         id="PolyCollection_23">
        <path
           d="m 992.3985,613.8864 v 0 -531.1152 0 0 z"
           clip-path="url(#pedd37d56c7)"
           style="fill:#808080;fill-opacity:0.25"
           id="path85" />
      </g>
      <g
         id="PolyCollection_24">
        <path
           d="M 992.3985,613.8864 H 970.218 V 82.7712 h 22.1805 v 0 z"
           clip-path="url(#pedd37d56c7)"
           style="fill:#808080;fill-opacity:0.25"
           id="path88" />
      </g>
      <g
         id="PolyCollection_25">
        <path
           d="m 948.0375,613.8864 v 0 -531.1152 0 0 z"
           clip-path="url(#pedd37d56c7)"
           style="fill:#808080;fill-opacity:0.25"
           id="path91" />
      </g>
      <g
         id="PolyCollection_26">
        <path
           d="M 1014.579,613.8864 H 992.3985 V 82.7712 h 22.1805 v 0 z"
           clip-path="url(#pedd37d56c7)"
           style="fill:#808080;fill-opacity:0.25"
           id="path94" />
      </g>
      <g
         id="PolyCollection_27">
        <path
           d="m 1081.1205,613.8864 h -88.722 V 82.7712 h 88.722 v 0 z"
           clip-path="url(#pedd37d56c7)"
           style="fill:#808080;fill-opacity:0.25"
           id="path97" />
      </g>
      <g
         id="PolyCollection_28">
        <path
           d="M 1081.1205,613.8864 H 1058.94 V 82.7712 h 22.1805 v 0 z"
           clip-path="url(#pedd37d56c7)"
           style="fill:#808080;fill-opacity:0.25"
           id="path100" />
      </g>
      <g
         id="PolyCollection_29">
        <path
           d="M 1081.1205,613.8864 H 1058.94 V 82.7712 h 22.1805 v 0 z"
           clip-path="url(#pedd37d56c7)"
           style="fill:#808080;fill-opacity:0.25"
           id="path103" />
      </g>
      <g
         id="PolyCollection_30">
        <path
           d="m 1081.1205,613.8864 h -88.722 V 82.7712 h 88.722 v 0 z"
           clip-path="url(#pedd37d56c7)"
           style="fill:#808080;fill-opacity:0.25"
           id="path106" />
      </g>
      <g
         id="PolyCollection_31">
        <path
           d="M 1014.579,613.8864 H 992.3985 V 82.7712 h 22.1805 v 0 z"
           clip-path="url(#pedd37d56c7)"
           style="fill:#808080;fill-opacity:0.25"
           id="path109" />
      </g>
      <g
         id="PolyCollection_32">
        <path
           d="m 1081.1205,613.8864 v 0 -531.1152 0 0 z"
           clip-path="url(#pedd37d56c7)"
           style="fill:#808080;fill-opacity:0.25"
           id="path112" />
      </g>
      <g
         id="PolyCollection_33">
        <path
           d="m 1103.301,613.8864 h -22.1805 V 82.7712 h 22.1805 v 0 z"
           clip-path="url(#pedd37d56c7)"
           style="fill:#808080;fill-opacity:0.25"
           id="path115" />
      </g>
      <g
         id="PolyCollection_34">
        <path
           d="m 1103.301,613.8864 v 0 -531.1152 0 0 z"
           clip-path="url(#pedd37d56c7)"
           style="fill:#808080;fill-opacity:0.25"
           id="path118" />
      </g>
      <g
         id="PolyCollection_35">
        <path
           d="m 1103.301,613.8864 v 0 -531.1152 0 0 z"
           clip-path="url(#pedd37d56c7)"
           style="fill:#808080;fill-opacity:0.25"
           id="path121" />
      </g>
      <g
         id="PolyCollection_36">
        <path
           d="m 1103.301,613.8864 h -22.1805 V 82.7712 h 22.1805 v 0 z"
           clip-path="url(#pedd37d56c7)"
           style="fill:#808080;fill-opacity:0.25"
           id="path124" />
      </g>
      <g
         id="PolyCollection_37">
        <path
           d="m 1081.1205,613.8864 v 0 -531.1152 0 0 z"
           clip-path="url(#pedd37d56c7)"
           style="fill:#808080;fill-opacity:0.25"
           id="path127" />
      </g>
      <g
         id="PolyCollection_38">
        <path
           d="M 1125.4815,613.8864 H 1103.301 V 82.7712 h 22.1805 v 0 z"
           clip-path="url(#pedd37d56c7)"
           style="fill:#808080;fill-opacity:0.25"
           id="path130" />
      </g>
      <g
         id="PolyCollection_39">
        <path
           d="m 1147.662,613.8864 h -44.361 V 82.7712 h 44.361 v 0 z"
           clip-path="url(#pedd37d56c7)"
           style="fill:#808080;fill-opacity:0.25"
           id="path133" />
      </g>
      <g
         id="PolyCollection_40">
        <path
           d="m 1147.662,613.8864 h -22.1805 V 82.7712 h 22.1805 v 0 z"
           clip-path="url(#pedd37d56c7)"
           style="fill:#808080;fill-opacity:0.25"
           id="path136" />
      </g>
      <g
         id="PolyCollection_41">
        <path
           d="m 1147.662,613.8864 h -22.1805 V 82.7712 h 22.1805 v 0 z"
           clip-path="url(#pedd37d56c7)"
           style="fill:#808080;fill-opacity:0.25"
           id="path139" />
      </g>
      <g
         id="PolyCollection_42">
        <path
           d="m 1147.662,613.8864 h -44.361 V 82.7712 h 44.361 v 0 z"
           clip-path="url(#pedd37d56c7)"
           style="fill:#808080;fill-opacity:0.25"
           id="path142" />
      </g>
      <g
         id="PolyCollection_43">
        <path
           d="M 1125.4815,613.8864 H 1103.301 V 82.7712 h 22.1805 v 0 z"
           clip-path="url(#pedd37d56c7)"
           style="fill:#808080;fill-opacity:0.25"
           id="path145" />
      </g>
      <g
         id="PolyCollection_44">
        <path
           d="m 1147.662,613.8864 v 0 -531.1152 0 0 z"
           clip-path="url(#pedd37d56c7)"
           style="fill:#808080;fill-opacity:0.25"
           id="path148" />
      </g>
      <g
         id="PolyCollection_45">
        <path
           d="M 1169.8425,613.8864 H 1147.662 V 82.7712 h 22.1805 v 0 z"
           clip-path="url(#pedd37d56c7)"
           style="fill:#808080;fill-opacity:0.25"
           id="path151" />
      </g>
      <g
         id="PolyCollection_46">
        <path
           d="m 1192.023,613.8864 v 0 -531.1152 0 0 z"
           clip-path="url(#pedd37d56c7)"
           style="fill:#808080;fill-opacity:0.25"
           id="path154" />
      </g>
      <g
         id="PolyCollection_47">
        <path
           d="m 1192.023,613.8864 v 0 -531.1152 0 0 z"
           clip-path="url(#pedd37d56c7)"
           style="fill:#808080;fill-opacity:0.25"
           id="path157" />
      </g>
      <g
         id="PolyCollection_48">
        <path
           d="m 1192.023,613.8864 h -22.1805 V 82.7712 h 22.1805 v 0 z"
           clip-path="url(#pedd37d56c7)"
           style="fill:#808080;fill-opacity:0.25"
           id="path160" />
      </g>
      <g
         id="PolyCollection_49">
        <path
           d="m 1147.662,613.8864 v 0 -531.1152 0 0 z"
           clip-path="url(#pedd37d56c7)"
           style="fill:#808080;fill-opacity:0.25"
           id="path163" />
      </g>
      <g
         id="matplotlib.axis_1">
        <g
           id="xtick_1">
          <g
             id="line2d_1">
            <defs
               id="defs167">
              <path
                 id="mfef60657d9"
                 d="M 0,0 V 3.5"
                 style="stroke:#000000;stroke-width:0.8" />
            </defs>
            <g
               id="g171">
              <use
                 xlink:href="#mfef60657d9"
                 x="171.72"
                 y="613.88641"
                 style="stroke:#000000;stroke-width:0.8"
                 id="use169"
                 width="100%"
                 height="100%" />
            </g>
          </g>
          <g
             id="text_1">
            <!-- 0 -->
            <g
               transform="matrix(0.1,0,0,-0.1,168.53875,628.48484)"
               id="g179">
              <defs
                 id="defs175">
                <path
                   id="DejaVuSans-30"
                   d="m 2034,4250 q -487,0 -733,-480 -245,-479 -245,-1442 0,-959 245,-1439 246,-480 733,-480 491,0 736,480 246,480 246,1439 0,963 -246,1442 -245,480 -736,480 z m 0,500 q 785,0 1199,-621 414,-620 414,-1801 0,-1178 -414,-1799 -414,-620 -1199,-620 -784,0 -1198,620 -414,621 -414,1799 0,1181 414,1801 414,621 1198,621 z"
                   transform="scale(0.015625)" />
              </defs>
              <use
                 xlink:href="#DejaVuSans-30"
                 id="use177"
                 x="0"
                 y="0"
                 width="100%"
                 height="100%" />
            </g>
          </g>
        </g>
        <g
           id="xtick_2">
          <g
             id="line2d_2">
            <g
               id="g185">
              <use
                 xlink:href="#mfef60657d9"
                 x="393.52499"
                 y="613.88641"
                 style="stroke:#000000;stroke-width:0.8"
                 id="use183"
                 width="100%"
                 height="100%" />
            </g>
          </g>
          <g
             id="text_2">
            <!-- 10 -->
            <g
               transform="matrix(0.1,0,0,-0.1,387.1625,628.48484)"
               id="g195">
              <defs
                 id="defs189">
                <path
                   id="DejaVuSans-31"
                   d="M 794,531 H 1825 V 4091 L 703,3866 v 575 l 1116,225 h 631 V 531 H 3481 V 0 H 794 Z"
                   transform="scale(0.015625)" />
              </defs>
              <use
                 xlink:href="#DejaVuSans-31"
                 id="use191"
                 x="0"
                 y="0"
                 width="100%"
                 height="100%" />
              <use
                 xlink:href="#DejaVuSans-30"
                 x="63.623047"
                 id="use193"
                 y="0"
                 width="100%"
                 height="100%" />
            </g>
          </g>
        </g>
        <g
           id="xtick_3">
          <g
             id="line2d_3">
            <g
               id="g201">
              <use
                 xlink:href="#mfef60657d9"
                 x="615.33002"
                 y="613.88641"
                 style="stroke:#000000;stroke-width:0.8"
                 id="use199"
                 width="100%"
                 height="100%" />
            </g>
          </g>
          <g
             id="text_3">
            <!-- 20 -->
            <g
               transform="matrix(0.1,0,0,-0.1,608.9675,628.48484)"
               id="g211">
              <defs
                 id="defs205">
                <path
                   id="DejaVuSans-32"
                   d="M 1228,531 H 3431 V 0 H 469 v 531 q 359,372 979,998 621,627 780,809 303,340 423,576 121,236 121,464 0,372 -261,606 -261,235 -680,235 -297,0 -627,-103 -329,-103 -704,-313 v 638 q 381,153 712,231 332,78 607,78 725,0 1156,-363 431,-362 431,-968 0,-288 -108,-546 -107,-257 -392,-607 -78,-91 -497,-524 Q 1991,1309 1228,531 Z"
                   transform="scale(0.015625)" />
              </defs>
              <use
                 xlink:href="#DejaVuSans-32"
                 id="use207"
                 x="0"
                 y="0"
                 width="100%"
                 height="100%" />
              <use
                 xlink:href="#DejaVuSans-30"
                 x="63.623047"
                 id="use209"
                 y="0"
                 width="100%"
                 height="100%" />
            </g>
          </g>
        </g>
        <g
           id="xtick_4">
          <g
             id="line2d_4">
            <g
               id="g217">
              <use
                 xlink:href="#mfef60657d9"
                 x="837.13501"
                 y="613.88641"
                 style="stroke:#000000;stroke-width:0.8"
                 id="use215"
                 width="100%"
                 height="100%" />
            </g>
          </g>
          <g
             id="text_4">
            <!-- 30 -->
            <g
               transform="matrix(0.1,0,0,-0.1,830.7725,628.48484)"
               id="g227">
              <defs
                 id="defs221">
                <path
                   id="DejaVuSans-33"
                   d="m 2597,2516 q 453,-97 707,-404 255,-306 255,-756 0,-690 -475,-1069 -475,-378 -1350,-378 -293,0 -604,58 -311,58 -642,174 v 609 q 262,-153 574,-231 313,-78 654,-78 593,0 904,234 311,234 311,681 0,413 -289,645 -289,233 -804,233 h -544 v 519 h 569 q 465,0 712,186 247,186 247,536 0,359 -255,551 -254,193 -729,193 -260,0 -557,-57 -297,-56 -653,-174 v 562 q 360,100 674,150 314,50 592,50 719,0 1137,-327 419,-326 419,-882 0,-388 -222,-655 -222,-267 -631,-370 z"
                   transform="scale(0.015625)" />
              </defs>
              <use
                 xlink:href="#DejaVuSans-33"
                 id="use223"
                 x="0"
                 y="0"
                 width="100%"
                 height="100%" />
              <use
                 xlink:href="#DejaVuSans-30"
                 x="63.623047"
                 id="use225"
                 y="0"
                 width="100%"
                 height="100%" />
            </g>
          </g>
        </g>
        <g
           id="xtick_5">
          <g
             id="line2d_5">
            <g
               id="g233">
              <use
                 xlink:href="#mfef60657d9"
                 x="1058.9399"
                 y="613.88641"
                 style="stroke:#000000;stroke-width:0.8"
                 id="use231"
                 width="100%"
                 height="100%" />
            </g>
          </g>
          <g
             id="text_5">
            <!-- 40 -->
            <g
               transform="matrix(0.1,0,0,-0.1,1052.5775,628.48484)"
               id="g243">
              <defs
                 id="defs237">
                <path
                   id="DejaVuSans-34"
                   d="M 2419,4116 825,1625 h 1594 z m -166,550 h 794 V 1625 h 666 V 1100 H 3047 V 0 H 2419 V 1100 H 313 v 609 z"
                   transform="scale(0.015625)" />
              </defs>
              <use
                 xlink:href="#DejaVuSans-34"
                 id="use239"
                 x="0"
                 y="0"
                 width="100%"
                 height="100%" />
              <use
                 xlink:href="#DejaVuSans-30"
                 x="63.623047"
                 id="use241"
                 y="0"
                 width="100%"
                 height="100%" />
            </g>
          </g>
        </g>
        <g
           id="text_6">
          <!-- time -->
          <g
             transform="matrix(0.1,0,0,-0.1,692.75591,642.16296)"
             id="g261">
            <defs
               id="defs251">
              <path
                 id="DejaVuSans-74"
                 d="M 1172,4494 V 3500 H 2356 V 3053 H 1172 V 1153 q 0,-428 117,-550 117,-122 477,-122 h 590 V 0 H 1766 Q 1100,0 847,248 594,497 594,1153 V 3053 H 172 v 447 h 422 v 994 z"
                 transform="scale(0.015625)" />
              <path
                 id="DejaVuSans-69"
                 d="m 603,3500 h 575 V 0 H 603 Z m 0,1363 h 575 V 4134 H 603 Z"
                 transform="scale(0.015625)" />
              <path
                 id="DejaVuSans-6d"
                 d="m 3328,2828 q 216,388 516,572 300,184 706,184 547,0 844,-383 297,-382 297,-1088 V 0 h -578 v 2094 q 0,503 -179,746 -178,244 -543,244 -447,0 -707,-297 -259,-296 -259,-809 V 0 h -578 v 2094 q 0,506 -178,748 -178,242 -550,242 -441,0 -701,-298 -259,-298 -259,-808 V 0 H 581 v 3500 h 578 v -544 q 197,322 472,475 275,153 653,153 382,0 649,-194 267,-193 395,-562 z"
                 transform="scale(0.015625)" />
              <path
                 id="DejaVuSans-65"
                 d="M 3597,1894 V 1613 H 953 q 38,-594 358,-905 320,-311 892,-311 331,0 642,81 311,81 618,244 V 178 Q 3153,47 2828,-22 2503,-91 2169,-91 1331,-91 842,396 353,884 353,1716 q 0,859 464,1363 464,505 1252,505 706,0 1117,-455 411,-454 411,-1235 z m -575,169 q -6,471 -264,752 -258,282 -683,282 -481,0 -770,-272 -289,-272 -333,-766 z"
                 transform="scale(0.015625)" />
            </defs>
            <use
               xlink:href="#DejaVuSans-74"
               id="use253"
               x="0"
               y="0"
               width="100%"
               height="100%" />
            <use
               xlink:href="#DejaVuSans-69"
               x="39.208984"
               id="use255"
               y="0"
               width="100%"
               height="100%" />
            <use
               xlink:href="#DejaVuSans-6d"
               x="66.992188"
               id="use257"
               y="0"
               width="100%"
               height="100%" />
            <use
               xlink:href="#DejaVuSans-65"
               x="164.4043"
               id="use259"
               y="0"
               width="100%"
               height="100%" />
          </g>
        </g>
      </g>
      <g
         id="matplotlib.axis_2">
        <g
           id="ytick_1">
          <g
             id="line2d_6">
            <defs
               id="defs266">
              <path
                 id="m8ce30220ff"
                 d="M 0,0 H -3.5"
                 style="stroke:#000000;stroke-width:0.8" />
            </defs>
            <g
               id="g270">
              <use
                 xlink:href="#m8ce30220ff"
                 x="171.72"
                 y="613.88641"
                 style="stroke:#000000;stroke-width:0.8"
                 id="use268"
                 width="100%"
                 height="100%" />
            </g>
          </g>
          <g
             id="text_7">
            <!-- 0.0 -->
            <g
               transform="matrix(0.1,0,0,-0.1,148.81687,617.68562)"
               id="g282">
              <defs
                 id="defs274">
                <path
                   id="DejaVuSans-2e"
                   d="m 684,794 h 660 V 0 H 684 Z"
                   transform="scale(0.015625)" />
              </defs>
              <use
                 xlink:href="#DejaVuSans-30"
                 id="use276"
                 x="0"
                 y="0"
                 width="100%"
                 height="100%" />
              <use
                 xlink:href="#DejaVuSans-2e"
                 x="63.623047"
                 id="use278"
                 y="0"
                 width="100%"
                 height="100%" />
              <use
                 xlink:href="#DejaVuSans-30"
                 x="95.410156"
                 id="use280"
                 y="0"
                 width="100%"
                 height="100%" />
            </g>
          </g>
        </g>
        <g
           id="ytick_2">
          <g
             id="line2d_7">
            <g
               id="g288">
              <use
                 xlink:href="#m8ce30220ff"
                 x="171.72"
                 y="517.32001"
                 style="stroke:#000000;stroke-width:0.8"
                 id="use286"
                 width="100%"
                 height="100%" />
            </g>
          </g>
          <g
             id="text_8">
            <!-- 0.5 -->
            <g
               transform="matrix(0.1,0,0,-0.1,148.81687,521.11922)"
               id="g300">
              <defs
                 id="defs292">
                <path
                   id="DejaVuSans-35"
                   d="M 691,4666 H 3169 V 4134 H 1269 V 2991 q 137,47 274,70 138,23 276,23 781,0 1237,-428 457,-428 457,-1159 Q 3513,744 3044,326 2575,-91 1722,-91 1428,-91 1123,-41 819,9 494,109 v 635 q 281,-153 581,-228 300,-75 634,-75 541,0 856,284 316,284 316,772 0,487 -316,771 -315,285 -856,285 -253,0 -505,-56 -251,-56 -513,-175 z"
                   transform="scale(0.015625)" />
              </defs>
              <use
                 xlink:href="#DejaVuSans-30"
                 id="use294"
                 x="0"
                 y="0"
                 width="100%"
                 height="100%" />
              <use
                 xlink:href="#DejaVuSans-2e"
                 x="63.623047"
                 id="use296"
                 y="0"
                 width="100%"
                 height="100%" />
              <use
                 xlink:href="#DejaVuSans-35"
                 x="95.410156"
                 id="use298"
                 y="0"
                 width="100%"
                 height="100%" />
            </g>
          </g>
        </g>
        <g
           id="ytick_3">
          <g
             id="line2d_8">
            <g
               id="g306">
              <use
                 xlink:href="#m8ce30220ff"
                 x="171.72"
                 y="420.7536"
                 style="stroke:#000000;stroke-width:0.8"
                 id="use304"
                 width="100%"
                 height="100%" />
            </g>
          </g>
          <g
             id="text_9">
            <!-- 1.0 -->
            <g
               transform="matrix(0.1,0,0,-0.1,148.81687,424.55282)"
               id="g315">
              <use
                 xlink:href="#DejaVuSans-31"
                 id="use309"
                 x="0"
                 y="0"
                 width="100%"
                 height="100%" />
              <use
                 xlink:href="#DejaVuSans-2e"
                 x="63.623047"
                 id="use311"
                 y="0"
                 width="100%"
                 height="100%" />
              <use
                 xlink:href="#DejaVuSans-30"
                 x="95.410156"
                 id="use313"
                 y="0"
                 width="100%"
                 height="100%" />
            </g>
          </g>
        </g>
        <g
           id="ytick_4">
          <g
             id="line2d_9">
            <g
               id="g321">
              <use
                 xlink:href="#m8ce30220ff"
                 x="171.72"
                 y="324.18719"
                 style="stroke:#000000;stroke-width:0.8"
                 id="use319"
                 width="100%"
                 height="100%" />
            </g>
          </g>
          <g
             id="text_10">
            <!-- 1.5 -->
            <g
               transform="matrix(0.1,0,0,-0.1,148.81687,327.98642)"
               id="g330">
              <use
                 xlink:href="#DejaVuSans-31"
                 id="use324"
                 x="0"
                 y="0"
                 width="100%"
                 height="100%" />
              <use
                 xlink:href="#DejaVuSans-2e"
                 x="63.623047"
                 id="use326"
                 y="0"
                 width="100%"
                 height="100%" />
              <use
                 xlink:href="#DejaVuSans-35"
                 x="95.410156"
                 id="use328"
                 y="0"
                 width="100%"
                 height="100%" />
            </g>
          </g>
        </g>
        <g
           id="ytick_5">
          <g
             id="line2d_10">
            <g
               id="g336">
              <use
                 xlink:href="#m8ce30220ff"
                 x="171.72"
                 y="227.6208"
                 style="stroke:#000000;stroke-width:0.8"
                 id="use334"
                 width="100%"
                 height="100%" />
            </g>
          </g>
          <g
             id="text_11">
            <!-- 2.0 -->
            <g
               transform="matrix(0.1,0,0,-0.1,148.81687,231.42002)"
               id="g345">
              <use
                 xlink:href="#DejaVuSans-32"
                 id="use339"
                 x="0"
                 y="0"
                 width="100%"
                 height="100%" />
              <use
                 xlink:href="#DejaVuSans-2e"
                 x="63.623047"
                 id="use341"
                 y="0"
                 width="100%"
                 height="100%" />
              <use
                 xlink:href="#DejaVuSans-30"
                 x="95.410156"
                 id="use343"
                 y="0"
                 width="100%"
                 height="100%" />
            </g>
          </g>
        </g>
        <g
           id="ytick_6">
          <g
             id="line2d_11">
            <g
               id="g351">
              <use
                 xlink:href="#m8ce30220ff"
                 x="171.72"
                 y="131.0544"
                 style="stroke:#000000;stroke-width:0.8"
                 id="use349"
                 width="100%"
                 height="100%" />
            </g>
          </g>
          <g
             id="text_12">
            <!-- 2.5 -->
            <g
               transform="matrix(0.1,0,0,-0.1,148.81687,134.85362)"
               id="g360">
              <use
                 xlink:href="#DejaVuSans-32"
                 id="use354"
                 x="0"
                 y="0"
                 width="100%"
                 height="100%" />
              <use
                 xlink:href="#DejaVuSans-2e"
                 x="63.623047"
                 id="use356"
                 y="0"
                 width="100%"
                 height="100%" />
              <use
                 xlink:href="#DejaVuSans-35"
                 x="95.410156"
                 id="use358"
                 y="0"
                 width="100%"
                 height="100%" />
            </g>
          </g>
        </g>
        <g
           id="text_13">
          <!-- signal -->
          <g
             transform="matrix(0,-0.1,-0.1,0,142.73719,363.11864)"
             id="g383">
            <defs
               id="defs369">
              <path
                 id="DejaVuSans-73"
                 d="m 2834,3397 v -544 q -243,125 -506,187 -262,63 -544,63 -428,0 -642,-131 -214,-131 -214,-394 0,-200 153,-314 153,-114 616,-217 l 197,-44 q 612,-131 870,-370 258,-239 258,-667 0,-488 -386,-773 Q 2250,-91 1575,-91 1294,-91 989,-36 684,19 347,128 v 594 q 319,-166 628,-249 309,-82 613,-82 406,0 624,139 219,139 219,392 0,234 -158,359 -157,125 -692,241 l -200,47 q -534,112 -772,345 -237,233 -237,639 0,494 350,762 350,269 994,269 318,0 599,-47 282,-46 519,-140 z"
                 transform="scale(0.015625)" />
              <path
                 id="DejaVuSans-67"
                 d="m 2906,1791 q 0,625 -258,968 -257,344 -723,344 -462,0 -720,-344 -258,-343 -258,-968 0,-622 258,-966 258,-344 720,-344 466,0 723,344 258,344 258,966 z M 3481,434 q 0,-893 -397,-1329 -396,-436 -1215,-436 -303,0 -572,45 -269,45 -522,139 v 559 q 253,-137 500,-202 247,-66 503,-66 566,0 847,295 281,295 281,892 V 616 Q 2728,306 2450,153 2172,0 1784,0 1141,0 747,490 353,981 353,1791 q 0,812 394,1302 394,491 1037,491 388,0 666,-153 278,-153 456,-462 v 531 h 575 z"
                 transform="scale(0.015625)" />
              <path
                 id="DejaVuSans-6e"
                 d="M 3513,2113 V 0 h -575 v 2094 q 0,497 -194,743 -194,247 -581,247 -466,0 -735,-297 -269,-296 -269,-809 V 0 H 581 v 3500 h 578 v -544 q 207,316 486,472 280,156 646,156 603,0 912,-373 310,-373 310,-1098 z"
                 transform="scale(0.015625)" />
              <path
                 id="DejaVuSans-61"
                 d="m 2194,1759 q -697,0 -966,-159 -269,-159 -269,-544 0,-306 202,-486 202,-179 548,-179 479,0 768,339 289,339 289,901 v 128 z m 1147,238 V 0 H 2766 V 531 Q 2569,213 2275,61 1981,-91 1556,-91 q -537,0 -855,302 -317,302 -317,808 0,590 395,890 396,300 1180,300 h 807 v 57 q 0,397 -261,614 -261,217 -733,217 -300,0 -585,-72 -284,-72 -546,-216 v 532 q 315,122 612,182 297,61 578,61 760,0 1135,-394 375,-393 375,-1193 z"
                 transform="scale(0.015625)" />
              <path
                 id="DejaVuSans-6c"
                 d="m 603,4863 h 575 V 0 H 603 Z"
                 transform="scale(0.015625)" />
            </defs>
            <use
               xlink:href="#DejaVuSans-73"
               id="use371"
               x="0"
               y="0"
               width="100%"
               height="100%" />
            <use
               xlink:href="#DejaVuSans-69"
               x="52.099609"
               id="use373"
               y="0"
               width="100%"
               height="100%" />
            <use
               xlink:href="#DejaVuSans-67"
               x="79.882812"
               id="use375"
               y="0"
               width="100%"
               height="100%" />
            <use
               xlink:href="#DejaVuSans-6e"
               x="143.35938"
               id="use377"
               y="0"
               width="100%"
               height="100%" />
            <use
               xlink:href="#DejaVuSans-61"
               x="206.73828"
               id="use379"
               y="0"
               width="100%"
               height="100%" />
            <use
               xlink:href="#DejaVuSans-6c"
               x="268.01758"
               id="use381"
               y="0"
               width="100%"
               height="100%" />
          </g>
        </g>
      </g>
      <g
         id="line2d_12">
        <path
           d="m 171.72,522.89961 22.1805,20.05877 22.1805,18.4944 22.1805,3.3721 22.1805,20.01048 22.1805,-4.15428 22.1805,14.49268 22.1805,-1.21673 22.1805,-5.27832 22.1805,11.02981 22.1805,0.88262 22.1805,-14.99483 22.1805,10.48518 22.1805,-11.22681 22.1805,3.26974 22.1805,-135.71249 22.1805,84.03401 22.1805,28.71885 22.1805,-6.44291 22.1805,-3.45322 22.1805,2.93369 22.1805,5.86544 22.1805,-6.51243 22.1805,-0.9618 22.1805,-11.5648 22.1805,-6.03154 22.1805,16.84119 22.1805,5.22617 22.1805,-0.95987 22.1805,-0.30708 22.1805,-17.77208 22.1805,-42.65145 22.1805,-14.78818 22.1805,26.09997 22.1805,-32.0697 22.1805,14.6665 22.1805,-32.18365 22.1805,-17.53453 22.1805,38.9182 22.1805,16.76778 22.1805,-10.23796 22.1805,11.24805 22.1805,-27.49632 22.1805,13.39956 22.1805,-5.91952 22.1805,-49.19865 22.1805,-19.24569 22.1805,88.59581"
           clip-path="url(#pedd37d56c7)"
           style="fill:none;stroke:#1f77b4;stroke-width:1.5;stroke-linecap:square"
           id="path387" />
      </g>
      <g
         id="LineCollection_1">
        <path
           d="M 171.72,613.8864 V 82.7712"
           clip-path="url(#pedd37d56c7)"
           style="fill:none;stroke:#008000;stroke-width:1.5"
           id="path390" />
      </g>
      <g
         id="LineCollection_2">
        <path
           d="M 460.0665,613.8864 V 82.7712"
           clip-path="url(#pedd37d56c7)"
           style="fill:none;stroke:#008000;stroke-width:1.5;stroke-dasharray:5.55, 2.4;stroke-dashoffset:0"
           id="path393" />
      </g>
      <g
         id="LineCollection_3">
        <path
           d="M 193.9005,613.8864 V 82.7712"
           clip-path="url(#pedd37d56c7)"
           style="fill:none;stroke:#ff0000;stroke-width:1.5"
           id="path396" />
      </g>
      <g
         id="LineCollection_4">
        <path
           d="M 482.247,613.8864 V 82.7712"
           clip-path="url(#pedd37d56c7)"
           style="fill:none;stroke:#ff0000;stroke-width:1.5;stroke-dasharray:5.55, 2.4;stroke-dashoffset:0"
           id="path399" />
      </g>
      <g
         id="LineCollection_5">
        <path
           d="M 482.247,613.8864 V 82.7712"
           clip-path="url(#pedd37d56c7)"
           style="fill:none;stroke:#008000;stroke-width:1.5"
           id="path402" />
      </g>
      <g
         id="LineCollection_6">
        <path
           d="M 504.4275,613.8864 V 82.7712"
           clip-path="url(#pedd37d56c7)"
           style="fill:none;stroke:#008000;stroke-width:1.5;stroke-dasharray:5.55, 2.4;stroke-dashoffset:0"
           id="path405" />
      </g>
      <g
         id="LineCollection_7">
        <path
           d="M 482.247,613.8864 V 82.7712"
           clip-path="url(#pedd37d56c7)"
           style="fill:none;stroke:#ff0000;stroke-width:1.5"
           id="path408" />
      </g>
      <g
         id="LineCollection_8">
        <path
           d="M 504.4275,613.8864 V 82.7712"
           clip-path="url(#pedd37d56c7)"
           style="fill:none;stroke:#ff0000;stroke-width:1.5;stroke-dasharray:5.55, 2.4;stroke-dashoffset:0"
           id="path411" />
      </g>
      <g
         id="LineCollection_9">
        <path
           d="M 504.4275,613.8864 V 82.7712"
           clip-path="url(#pedd37d56c7)"
           style="fill:none;stroke:#008000;stroke-width:1.5"
           id="path414" />
      </g>
      <g
         id="LineCollection_10">
        <path
           d="M 925.857,613.8864 V 82.7712"
           clip-path="url(#pedd37d56c7)"
           style="fill:none;stroke:#008000;stroke-width:1.5;stroke-dasharray:5.55, 2.4;stroke-dashoffset:0"
           id="path417" />
      </g>
      <g
         id="LineCollection_11">
        <path
           d="M 526.608,613.8864 V 82.7712"
           clip-path="url(#pedd37d56c7)"
           style="fill:none;stroke:#ff0000;stroke-width:1.5"
           id="path420" />
      </g>
      <g
         id="LineCollection_12">
        <path
           d="M 948.0375,613.8864 V 82.7712"
           clip-path="url(#pedd37d56c7)"
           style="fill:none;stroke:#ff0000;stroke-width:1.5;stroke-dasharray:5.55, 2.4;stroke-dashoffset:0"
           id="path423" />
      </g>
      <g
         id="LineCollection_13">
        <path
           d="M 948.0375,613.8864 V 82.7712"
           clip-path="url(#pedd37d56c7)"
           style="fill:none;stroke:#008000;stroke-width:1.5"
           id="path426" />
      </g>
      <g
         id="LineCollection_14">
        <path
           d="M 992.3985,613.8864 V 82.7712"
           clip-path="url(#pedd37d56c7)"
           style="fill:none;stroke:#008000;stroke-width:1.5;stroke-dasharray:5.55, 2.4;stroke-dashoffset:0"
           id="path429" />
      </g>
      <g
         id="LineCollection_15">
        <path
           d="M 948.0375,613.8864 V 82.7712"
           clip-path="url(#pedd37d56c7)"
           style="fill:none;stroke:#ff0000;stroke-width:1.5"
           id="path432" />
      </g>
      <g
         id="LineCollection_16">
        <path
           d="M 992.3985,613.8864 V 82.7712"
           clip-path="url(#pedd37d56c7)"
           style="fill:none;stroke:#ff0000;stroke-width:1.5;stroke-dasharray:5.55, 2.4;stroke-dashoffset:0"
           id="path435" />
      </g>
      <g
         id="LineCollection_17">
        <path
           d="M 992.3985,613.8864 V 82.7712"
           clip-path="url(#pedd37d56c7)"
           style="fill:none;stroke:#008000;stroke-width:1.5"
           id="path438" />
      </g>
      <g
         id="LineCollection_18">
        <path
           d="M 1058.94,613.8864 V 82.7712"
           clip-path="url(#pedd37d56c7)"
           style="fill:none;stroke:#008000;stroke-width:1.5;stroke-dasharray:5.55, 2.4;stroke-dashoffset:0"
           id="path441" />
      </g>
      <g
         id="LineCollection_19">
        <path
           d="M 1014.579,613.8864 V 82.7712"
           clip-path="url(#pedd37d56c7)"
           style="fill:none;stroke:#ff0000;stroke-width:1.5"
           id="path444" />
      </g>
      <g
         id="LineCollection_20">
        <path
           d="M 1081.1205,613.8864 V 82.7712"
           clip-path="url(#pedd37d56c7)"
           style="fill:none;stroke:#ff0000;stroke-width:1.5;stroke-dasharray:5.55, 2.4;stroke-dashoffset:0"
           id="path447" />
      </g>
      <g
         id="LineCollection_21">
        <path
           d="M 1081.1205,613.8864 V 82.7712"
           clip-path="url(#pedd37d56c7)"
           style="fill:none;stroke:#008000;stroke-width:1.5"
           id="path450" />
      </g>
      <g
         id="LineCollection_22">
        <path
           d="M 1103.301,613.8864 V 82.7712"
           clip-path="url(#pedd37d56c7)"
           style="fill:none;stroke:#008000;stroke-width:1.5;stroke-dasharray:5.55, 2.4;stroke-dashoffset:0"
           id="path453" />
      </g>
      <g
         id="LineCollection_23">
        <path
           d="M 1081.1205,613.8864 V 82.7712"
           clip-path="url(#pedd37d56c7)"
           style="fill:none;stroke:#ff0000;stroke-width:1.5"
           id="path456" />
      </g>
      <g
         id="LineCollection_24">
        <path
           d="M 1103.301,613.8864 V 82.7712"
           clip-path="url(#pedd37d56c7)"
           style="fill:none;stroke:#ff0000;stroke-width:1.5;stroke-dasharray:5.55, 2.4;stroke-dashoffset:0"
           id="path459" />
      </g>
      <g
         id="LineCollection_25">
        <path
           d="M 1103.301,613.8864 V 82.7712"
           clip-path="url(#pedd37d56c7)"
           style="fill:none;stroke:#008000;stroke-width:1.5"
           id="path462" />
      </g>
      <g
         id="LineCollection_26">
        <path
           d="M 1125.4815,613.8864 V 82.7712"
           clip-path="url(#pedd37d56c7)"
           style="fill:none;stroke:#008000;stroke-width:1.5;stroke-dasharray:5.55, 2.4;stroke-dashoffset:0"
           id="path465" />
      </g>
      <g
         id="LineCollection_27">
        <path
           d="M 1125.4815,613.8864 V 82.7712"
           clip-path="url(#pedd37d56c7)"
           style="fill:none;stroke:#ff0000;stroke-width:1.5"
           id="path468" />
      </g>
      <g
         id="LineCollection_28">
        <path
           d="M 1147.662,613.8864 V 82.7712"
           clip-path="url(#pedd37d56c7)"
           style="fill:none;stroke:#ff0000;stroke-width:1.5;stroke-dasharray:5.55, 2.4;stroke-dashoffset:0"
           id="path471" />
      </g>
      <g
         id="LineCollection_29">
        <path
           d="M 1147.662,613.8864 V 82.7712"
           clip-path="url(#pedd37d56c7)"
           style="fill:none;stroke:#008000;stroke-width:1.5"
           id="path474" />
      </g>
      <g
         id="LineCollection_30">
        <path
           d="M 1192.023,613.8864 V 82.7712"
           clip-path="url(#pedd37d56c7)"
           style="fill:none;stroke:#008000;stroke-width:1.5;stroke-dasharray:5.55, 2.4;stroke-dashoffset:0"
           id="path477" />
      </g>
      <g
         id="LineCollection_31">
        <path
           d="M 1147.662,613.8864 V 82.7712"
           clip-path="url(#pedd37d56c7)"
           style="fill:none;stroke:#ff0000;stroke-width:1.5"
           id="path480" />
      </g>
      <g
         id="LineCollection_32">
        <path
           d="M 1192.023,613.8864 V 82.7712"
           clip-path="url(#pedd37d56c7)"
           style="fill:none;stroke:#ff0000;stroke-width:1.5;stroke-dasharray:5.55, 2.4;stroke-dashoffset:0"
           id="path483" />
      </g>
      <g
         id="patch_3">
        <path
           d="M 171.72,613.8864 V 82.7712"
           style="fill:none;stroke:#000000;stroke-width:0.8;stroke-linecap:square;stroke-linejoin:miter"
           id="path486" />
      </g>
      <g
         id="patch_4">
        <path
           d="M 1236.384,613.8864 V 82.7712"
           style="fill:none;stroke:#000000;stroke-width:0.8;stroke-linecap:square;stroke-linejoin:miter"
           id="path489" />
      </g>
      <g
         id="patch_5">
        <path
           d="M 171.72,613.8864 H 1236.384"
           style="fill:none;stroke:#000000;stroke-width:0.8;stroke-linecap:square;stroke-linejoin:miter"
           id="path492" />
      </g>
      <g
         id="patch_6">
        <path
           d="M 171.72,82.7712 H 1236.384"
           style="fill:none;stroke:#000000;stroke-width:0.8;stroke-linecap:square;stroke-linejoin:miter"
           id="path495" />
      </g>
    </g>
  </g>
  <defs
     id="defs503">
    <clipPath
       id="pedd37d56c7">
      <rect
         x="171.72"
         y="82.771202"
         width="1064.6639"
         height="531.11517"
         id="rect500" />
    </clipPath>
  </defs>
</svg>
